<?xml version="1.0" encoding="UTF-8"?>
<svg xmlns="http://www.w3.org/2000/svg" viewBox="0 0 660.94124 595.01472">
  <defs>
    <style>
      .cls-1 {
        fill: #ffcd33;
      }

      .cls-2 {
        fill: #72c8f1;
      }

      .cls-3 {
        fill: #f499c1;
      }

      .cls-4 {
        fill: #fc6;
      }
    </style>
  </defs>
  <g id="OG">
    <g>
      <path class="cls-4" d="M333.76352,426.52058c-.18652-.06641-.64746-.33691-1.22461-1.05566-4.51465-5.59473-9.83008-9.96094-15.82861-13.00781,15.81592-24.3584,31.79248-62.27051,38.27002-90.9707,9.8125-43.4873-15.37891-59.58545-45.94287-72.18799,8.61572-17.88184,16.70459-34.78125,24.11963-50.39062,28.0332,9.61914,111.53809,54.30566,127.85645,66.646,7.52344,5.69629,17.83008,13.50049,1.23535,43.25098-4.42969,7.93945-7.61719,8.60449-10.25781,8.60449-3.48242,0-8.32324-1.65527-13.82812-3.65576-6.99707-2.54053-14.92578-5.41943-23.68652-5.41943-20.26562,0-36.34766,16.08789-49.16504,49.18359-3.08789,7.95117-8.92871,20.41504-14.57715,32.46973-6.56348,14.00488-11.7832,25.31641-15.9248,34.99512-.42383.98926-.8623,1.41895-1.0459,1.53809Z"/>
      <path class="cls-4" d="M155.8309,595.01472c-14.98291,0-27.11133-3.9834-36.04834-11.83984-13.61133-11.9707-20.64844-34.00391-20.34912-63.7168.30859-30.66309,8.46484-69.78613,23.58643-113.14062,1.01074-2.69336,2.24268-5.91699,3.67285-9.6582l.18848-.49316c7.16455-18.80762,20.49023-53.79199,37.60596-102.55029l.03711-.09424.07568-.22314c15.0918-43.00586,30.19678-88.33301,44.89697-134.72852,16.09814-46.10156,34.76758-81.62891,55.49072-105.59424,18.71191-21.646,38.03076-32.62109,57.41992-32.62109,9.37744,0,18.86279,2.61084,28.19189,7.76074,15.05957,8.32568,21.45605,27.96094,14.56055,44.69971-7.83301,19.00439-19.77637,45.73535-35.49805,79.44824-26.8667,57.55615-60.3623,126.34521-89.91455,187.03662l-.29443.60449c-43.08545,88.47949-59.55664,122.64941-61.57471,130.45996-1.37158,5.36719.94141,10.95215,5.62158,13.59473,1.48633.83496,3.27686,1.27441,5.18652,1.27441h.00049c2.44189,0,4.89209-.71777,6.73877-1.97168.1665-.1084.36035-.24219.58545-.40039l.24414-.1709c44.77051-31.29199,83.75146-51.50684,99.3208-51.50684.29053,0,.57324.00781.84912.02246,9.35254.53516,21.6333,5.80859,26.95996,27.8916,5.9165,24.48633-1.35059,56.33594-14.95215,65.53711l-29.16602,19.7334c-48.98877,33.13281-91.67236,50.64648-123.43604,50.64648Z"/>
    </g>
    <g>
      <path class="cls-1" d="M488.9891,595.00887c-31.76562,0-74.45117-17.51172-123.44141-50.64062l-17.68848-11.9502c-5.74219-3.88086-8.12402-11.1084-5.79199-17.57715,8.76855-24.31348,5.59961-50.18945,4.875-55.12988-.37695-6.52051,18.21191-46.20703,24.32031-59.24805,6.12793-13.07812,11.91602-25.43066,15.24023-34.01172,11.7373-30.30078,21.2832-34.18652,28.28809-34.18652,4.80762,0,10.16602,1.94531,15.83887,4.00488,6.47852,2.35449,13.8125,5.01855,21.57324,5.01855,12.37207,0,22.12109-6.69922,29.80273-20.48145,26.99121-48.41211.97754-68.08691-7.57031-74.55225-6.33887-4.79688-23.73438-15.15771-45.39746-27.03857-1.29688-.71143-1.70312-1.86279-1.8291-2.48535-.12402-.60938-.19824-1.80029.69141-2.92676,8.12207-10.27832,16.12109-22.54932,21.39844-32.82422,1.39551-2.71631,4.19629-4.40332,7.3125-4.40332.27051,0,.54297.01318.81641.03955.77051.07471,1.55371.11279,2.32812.11279h20.18262c47.00586,0,86.80859,5.25732,115.10547,15.20312,27.19336,9.55811,43.93945,23.48096,48.42871,40.26318,4.52246,16.89209-2.82031,38.40479-21.2334,62.21387-18.87988,24.41162-49.57129,51.3833-88.8125,78.05615h-3.46484l-.00586,2.41113c-3.98828,2.88281-9.74707,7.39844-17.53613,13.53711l-.15918.125c-21.38086,16.82031-53.69141,42.2373-69.2627,47.9375-4.88184,1.77441-8.33301,7.23633-7.8457,12.42969.59961,6.17578,5.49512,10.82129,11.38867,10.82129,1.28223,0,2.53906-.21875,3.7373-.65137,9.96289-3.58594,28.91406-15.86719,56.32227-36.50195,3.37793-2.54199,6.92383-3.88574,10.25391-3.88574,5.8916,0,10.68555,4.28613,12.82227,11.4668,6.22461,20.9209,13.95605,52.10449,15.43848,81.85938,1.69336,34.02344-5.0625,57.96484-20.08008,71.16016-8.93945,7.85254-21.06738,11.83496-36.0459,11.83496Z"/>
      <path class="cls-1" d="M402.80746,204.7032c-.65918,0-1.30078-.16016-1.90918-.47559-13.9707-7.2124-34.01855-17.19824-50.24805-23.84326-1.83496-.75342-3.25586-2.20801-3.99707-4.09326-.83887-2.13623-.7373-4.53516.28711-6.75439,11.62402-25.20508,33.10156-72.28516,39.87012-88.87256,1.62305-3.97363,3.90723-6.44287,5.95898-6.44287,1.88965,0,4.20605,1.92578,6.19727,5.15186,12.55469,20.2373,24.25488,45.38623,34.7832,74.75781.44727,1.24805.55762,3.87891.21484,5.11621-3.86426,13.77881-20.70801,35.2041-27.77051,43.7749-.87988,1.06787-2.11426,1.68115-3.38672,1.68115Z"/>
      <path class="cls-1" d="M215.85141,441.54695c11.48047-24.10449,27.98535-57.98535,43.9834-90.82715,11.98438-24.61035,24.85156-51.05469,37.74414-77.67969.46143-.95068,1.49463-1.6167,2.51221-1.6167.26025,0,.50439.04639.72559.1377,30.82275,12.81348,37.08838,21.53955,31.91553,44.45752-6.96289,30.87891-23.11328,64.86621-35.17334,83.37695-2.60889,3.99805-8.86279,8.41602-13.38135,9.45117-16.47559,3.7793-39.44385,14.77344-68.32617,32.7002Z"/>
      <path class="cls-1" d="M173.65854,180.60164c-1.81104-2.49756-4.91992-3.87305-8.78174-3.87305-47.00537,0-86.80811,5.25732-115.10547,15.20312-27.19336,9.55811-43.93994,23.48096-48.42871,40.26416-5.33496,19.93066,5.24561,44.89893,31.44678,74.20996,22.87939,25.59521,52.40137,48.16162,67.9624,59.33545,1.95703,1.40527,4.05225,2.14746,6.05957,2.14746,3.88721,0,7.23779-2.74414,8.96094-7.33789,7.04199-18.80664,13.75977-37.18652,20.53906-56.19482,2.01953-5.63965-.40869-12.7876-5.29688-15.60547-10.72949-6.16895-21.97461-11.45361-33.42236-15.70703-14.14258-5.25195-28.81152-9.03906-43.604-11.25684-5.37256-.81104-9.80225-5.68945-10.08496-11.09668-.18457-3.40625,1.01025-6.73291,3.27881-9.12793,2.1333-2.25244,5.09424-3.54395,8.12354-3.54395.53857,0,1.08301.04004,1.62158.12012,16.43408,2.44727,32.69727,6.63232,48.33838,12.43896,10.88232,4.0415,21.65674,8.9585,32.02197,14.61426,1.63574.89111,3.32959,1.34326,5.03467,1.34326h.00049c4.49707,0,8.3501-3.08008,10.05469-8.03711,7.41992-21.58984,14.89355-43.91455,22.21387-66.35693,1.46826-4.49121,1.12842-8.69727-.93262-11.53906ZM61.51016,290.1656c2.5722-1.79645,6.01538-1.17041,8.17938,1.18402,4.49115,4.89941,9.58112,9.09119,15.12024,12.45282,4.55914,2.7627,9.41779,4.9538,14.45337,6.51898,3.21179,1.00708,5.40295,4.43671,4.77698,7.97516-.58521,3.41602-3.32074,5.67529-6.31488,5.67529-.58521,0-1.18402-.08167-1.76923-.25861-6.08356-1.87811-11.94928-4.51837-17.44751-7.83911-6.6687-4.04211-12.77942-9.09119-18.15521-14.9978-2.78998-3.07581-2.3952-8.23376,1.15686-10.71075ZM130.06857,222.73317c-.88568,2.40479-2.88477,3.93683-5.11218,4.22211-1.12042.14349-2.29413-.02173-3.40479-.55176-5.21869-2.5011-10.68732-3.95483-16.26245-4.31104-3.31934-.20599-6.67126-.02362-9.95959.54846-3.92279.65332-7.58722-2.56824-7.58392-7.04163.00665-3.3761,2.46454-6.14697,5.56732-6.66779,4.13879-.68103,8.33636-.90308,12.49994-.64056,7.02875.45813,13.92664,2.25018,20.5127,5.35815,3.25592,1.53137,5.03729,5.58411,3.74298,9.08405Z"/>
    </g>
  </g>
  <g id="Yellow_Blue" data-name="Yellow Blue">
    <g>
      <path class="cls-4" d="M333.76352,426.52058c-.18652-.06641-.64746-.33691-1.22461-1.05566-4.51465-5.59473-9.83008-9.96094-15.82861-13.00781,15.81592-24.3584,31.79248-62.27051,38.27002-90.9707,9.8125-43.4873-15.37891-59.58545-45.94287-72.18799,8.61572-17.88184,16.70459-34.78125,24.11963-50.39062,28.0332,9.61914,111.53809,54.30566,127.85645,66.646,7.52344,5.69629,17.83008,13.50049,1.23535,43.25098-4.42969,7.93945-7.61719,8.60449-10.25781,8.60449-3.48242,0-8.32324-1.65527-13.82812-3.65576-6.99707-2.54053-14.92578-5.41943-23.68652-5.41943-20.26562,0-36.34766,16.08789-49.16504,49.18359-3.08789,7.95117-8.92871,20.41504-14.57715,32.46973-6.56348,14.00488-11.7832,25.31641-15.9248,34.99512-.42383.98926-.8623,1.41895-1.0459,1.53809Z"/>
      <path class="cls-4" d="M155.8309,595.01472c-14.98291,0-27.11133-3.9834-36.04834-11.83984-13.61133-11.9707-20.64844-34.00391-20.34912-63.7168.30859-30.66309,8.46484-69.78613,23.58643-113.14062,1.01074-2.69336,2.24268-5.91699,3.67285-9.6582l.18848-.49316c7.16455-18.80762,20.49023-53.79199,37.60596-102.55029l.03711-.09424.07568-.22314c15.0918-43.00586,30.19678-88.33301,44.89697-134.72852,16.09814-46.10156,34.76758-81.62891,55.49072-105.59424,18.71191-21.646,38.03076-32.62109,57.41992-32.62109,9.37744,0,18.86279,2.61084,28.19189,7.76074,15.05957,8.32568,21.45605,27.96094,14.56055,44.69971-7.83301,19.00439-19.77637,45.73535-35.49805,79.44824-26.8667,57.55615-60.3623,126.34521-89.91455,187.03662l-.29443.60449c-43.08545,88.47949-59.55664,122.64941-61.57471,130.45996-1.37158,5.36719.94141,10.95215,5.62158,13.59473,1.48633.83496,3.27686,1.27441,5.18652,1.27441h.00049c2.44189,0,4.89209-.71777,6.73877-1.97168.1665-.1084.36035-.24219.58545-.40039l.24414-.1709c44.77051-31.29199,83.75146-51.50684,99.3208-51.50684.29053,0,.57324.00781.84912.02246,9.35254.53516,21.6333,5.80859,26.95996,27.8916,5.9165,24.48633-1.35059,56.33594-14.95215,65.53711l-29.16602,19.7334c-48.98877,33.13281-91.67236,50.64648-123.43604,50.64648Z"/>
    </g>
    <g>
      <path class="cls-2" d="M488.9891,595.00887c-31.76562,0-74.45117-17.51172-123.44141-50.64062l-17.68848-11.9502c-5.74219-3.88086-8.12402-11.1084-5.79199-17.57715,8.76855-24.31348,5.59961-50.18945,4.875-55.12988-.37695-6.52051,18.21191-46.20703,24.32031-59.24805,6.12793-13.07812,11.91602-25.43066,15.24023-34.01172,11.7373-30.30078,21.2832-34.18652,28.28809-34.18652,4.80762,0,10.16602,1.94531,15.83887,4.00488,6.47852,2.35449,13.8125,5.01855,21.57324,5.01855,12.37207,0,22.12109-6.69922,29.80273-20.48145,26.99121-48.41211.97754-68.08691-7.57031-74.55225-6.33887-4.79688-23.73438-15.15771-45.39746-27.03857-1.29688-.71143-1.70312-1.86279-1.8291-2.48535-.12402-.60938-.19824-1.80029.69141-2.92676,8.12207-10.27832,16.12109-22.54932,21.39844-32.82422,1.39551-2.71631,4.19629-4.40332,7.3125-4.40332.27051,0,.54297.01318.81641.03955.77051.07471,1.55371.11279,2.32812.11279h20.18262c47.00586,0,86.80859,5.25732,115.10547,15.20312,27.19336,9.55811,43.93945,23.48096,48.42871,40.26318,4.52246,16.89209-2.82031,38.40479-21.2334,62.21387-18.87988,24.41162-49.57129,51.3833-88.8125,78.05615h-3.46484l-.00586,2.41113c-3.98828,2.88281-9.74707,7.39844-17.53613,13.53711l-.15918.125c-21.38086,16.82031-53.69141,42.2373-69.2627,47.9375-4.88184,1.77441-8.33301,7.23633-7.8457,12.42969.59961,6.17578,5.49512,10.82129,11.38867,10.82129,1.28223,0,2.53906-.21875,3.7373-.65137,9.96289-3.58594,28.91406-15.86719,56.32227-36.50195,3.37793-2.54199,6.92383-3.88574,10.25391-3.88574,5.8916,0,10.68555,4.28613,12.82227,11.4668,6.22461,20.9209,13.95605,52.10449,15.43848,81.85938,1.69336,34.02344-5.0625,57.96484-20.08008,71.16016-8.93945,7.85254-21.06738,11.83496-36.0459,11.83496Z"/>
      <path class="cls-2" d="M402.80746,204.7032c-.65918,0-1.30078-.16016-1.90918-.47559-13.9707-7.2124-34.01855-17.19824-50.24805-23.84326-1.83496-.75342-3.25586-2.20801-3.99707-4.09326-.83887-2.13623-.7373-4.53516.28711-6.75439,11.62402-25.20508,33.10156-72.28516,39.87012-88.87256,1.62305-3.97363,3.90723-6.44287,5.95898-6.44287,1.88965,0,4.20605,1.92578,6.19727,5.15186,12.55469,20.2373,24.25488,45.38623,34.7832,74.75781.44727,1.24805.55762,3.87891.21484,5.11621-3.86426,13.77881-20.70801,35.2041-27.77051,43.7749-.87988,1.06787-2.11426,1.68115-3.38672,1.68115Z"/>
      <path class="cls-2" d="M215.85141,441.54695c11.48047-24.10449,27.98535-57.98535,43.9834-90.82715,11.98438-24.61035,24.85156-51.05469,37.74414-77.67969.46143-.95068,1.49463-1.6167,2.51221-1.6167.26025,0,.50439.04639.72559.1377,30.82275,12.81348,37.08838,21.53955,31.91553,44.45752-6.96289,30.87891-23.11328,64.86621-35.17334,83.37695-2.60889,3.99805-8.86279,8.41602-13.38135,9.45117-16.47559,3.7793-39.44385,14.77344-68.32617,32.7002Z"/>
      <path class="cls-2" d="M173.65854,180.60164c-1.81104-2.49756-4.91992-3.87305-8.78174-3.87305-47.00537,0-86.80811,5.25732-115.10547,15.20312-27.19336,9.55811-43.93994,23.48096-48.42871,40.26416-5.33496,19.93066,5.24561,44.89893,31.44678,74.20996,22.87939,25.59521,52.40137,48.16162,67.9624,59.33545,1.95703,1.40527,4.05225,2.14746,6.05957,2.14746,3.88721,0,7.23779-2.74414,8.96094-7.33789,7.04199-18.80664,13.75977-37.18652,20.53906-56.19482,2.01953-5.63965-.40869-12.7876-5.29688-15.60547-10.72949-6.16895-21.97461-11.45361-33.42236-15.70703-14.14258-5.25195-28.81152-9.03906-43.604-11.25684-5.37256-.81104-9.80225-5.68945-10.08496-11.09668-.18457-3.40625,1.01025-6.73291,3.27881-9.12793,2.1333-2.25244,5.09424-3.54395,8.12354-3.54395.53857,0,1.08301.04004,1.62158.12012,16.43408,2.44727,32.69727,6.63232,48.33838,12.43896,10.88232,4.0415,21.65674,8.9585,32.02197,14.61426,1.63574.89111,3.32959,1.34326,5.03467,1.34326h.00049c4.49707,0,8.3501-3.08008,10.05469-8.03711,7.41992-21.58984,14.89355-43.91455,22.21387-66.35693,1.46826-4.49121,1.12842-8.69727-.93262-11.53906ZM61.51016,290.1656c2.5722-1.79645,6.01538-1.17041,8.17938,1.18402,4.49115,4.89941,9.58112,9.09119,15.12024,12.45282,4.55914,2.7627,9.41779,4.9538,14.45337,6.51898,3.21179,1.00708,5.40295,4.43671,4.77698,7.97516-.58521,3.41602-3.32074,5.67529-6.31488,5.67529-.58521,0-1.18402-.08167-1.76923-.25861-6.08356-1.87811-11.94928-4.51837-17.44751-7.83911-6.6687-4.04211-12.77942-9.09119-18.15521-14.9978-2.78998-3.07581-2.3952-8.23376,1.15686-10.71075ZM130.06857,222.73317c-.88568,2.40479-2.88477,3.93683-5.11218,4.22211-1.12042.14349-2.29413-.02173-3.40479-.55176-5.21869-2.5011-10.68732-3.95483-16.26245-4.31104-3.31934-.20599-6.67126-.02362-9.95959.54846-3.92279.65332-7.58722-2.56824-7.58392-7.04163.00665-3.3761,2.46454-6.14697,5.56732-6.66779,4.13879-.68103,8.33636-.90308,12.49994-.64056,7.02875.45813,13.92664,2.25018,20.5127,5.35815,3.25592,1.53137,5.03729,5.58411,3.74298,9.08405Z"/>
    </g>
  </g>
  <g id="Yellow_Pink" data-name="Yellow Pink">
    <g>
      <path class="cls-4" d="M333.76352,426.52058c-.18652-.06641-.64746-.33691-1.22461-1.05566-4.51465-5.59473-9.83008-9.96094-15.82861-13.00781,15.81592-24.3584,31.79248-62.27051,38.27002-90.9707,9.8125-43.4873-15.37891-59.58545-45.94287-72.18799,8.61572-17.88184,16.70459-34.78125,24.11963-50.39062,28.0332,9.61914,111.53809,54.30566,127.85645,66.646,7.52344,5.69629,17.83008,13.50049,1.23535,43.25098-4.42969,7.93945-7.61719,8.60449-10.25781,8.60449-3.48242,0-8.32324-1.65527-13.82812-3.65576-6.99707-2.54053-14.92578-5.41943-23.68652-5.41943-20.26562,0-36.34766,16.08789-49.16504,49.18359-3.08789,7.95117-8.92871,20.41504-14.57715,32.46973-6.56348,14.00488-11.7832,25.31641-15.9248,34.99512-.42383.98926-.8623,1.41895-1.0459,1.53809Z"/>
      <path class="cls-4" d="M155.8309,595.01472c-14.98291,0-27.11133-3.9834-36.04834-11.83984-13.61133-11.9707-20.64844-34.00391-20.34912-63.7168.30859-30.66309,8.46484-69.78613,23.58643-113.14062,1.01074-2.69336,2.24268-5.91699,3.67285-9.6582l.18848-.49316c7.16455-18.80762,20.49023-53.79199,37.60596-102.55029l.03711-.09424.07568-.22314c15.0918-43.00586,30.19678-88.33301,44.89697-134.72852,16.09814-46.10156,34.76758-81.62891,55.49072-105.59424,18.71191-21.646,38.03076-32.62109,57.41992-32.62109,9.37744,0,18.86279,2.61084,28.19189,7.76074,15.05957,8.32568,21.45605,27.96094,14.56055,44.69971-7.83301,19.00439-19.77637,45.73535-35.49805,79.44824-26.8667,57.55615-60.3623,126.34521-89.91455,187.03662l-.29443.60449c-43.08545,88.47949-59.55664,122.64941-61.57471,130.45996-1.37158,5.36719.94141,10.95215,5.62158,13.59473,1.48633.83496,3.27686,1.27441,5.18652,1.27441h.00049c2.44189,0,4.89209-.71777,6.73877-1.97168.1665-.1084.36035-.24219.58545-.40039l.24414-.1709c44.77051-31.29199,83.75146-51.50684,99.3208-51.50684.29053,0,.57324.00781.84912.02246,9.35254.53516,21.6333,5.80859,26.95996,27.8916,5.9165,24.48633-1.35059,56.33594-14.95215,65.53711l-29.16602,19.7334c-48.98877,33.13281-91.67236,50.64648-123.43604,50.64648Z"/>
    </g>
    <g>
      <path class="cls-3" d="M488.9891,595.00887c-31.76562,0-74.45117-17.51172-123.44141-50.64062l-17.68848-11.9502c-5.74219-3.88086-8.12402-11.1084-5.79199-17.57715,8.76855-24.31348,5.59961-50.18945,4.875-55.12988-.37695-6.52051,18.21191-46.20703,24.32031-59.24805,6.12793-13.07812,11.91602-25.43066,15.24023-34.01172,11.7373-30.30078,21.2832-34.18652,28.28809-34.18652,4.80762,0,10.16602,1.94531,15.83887,4.00488,6.47852,2.35449,13.8125,5.01855,21.57324,5.01855,12.37207,0,22.12109-6.69922,29.80273-20.48145,26.99121-48.41211.97754-68.08691-7.57031-74.55225-6.33887-4.79688-23.73438-15.15771-45.39746-27.03857-1.29688-.71143-1.70312-1.86279-1.8291-2.48535-.12402-.60938-.19824-1.80029.69141-2.92676,8.12207-10.27832,16.12109-22.54932,21.39844-32.82422,1.39551-2.71631,4.19629-4.40332,7.3125-4.40332.27051,0,.54297.01318.81641.03955.77051.07471,1.55371.11279,2.32812.11279h20.18262c47.00586,0,86.80859,5.25732,115.10547,15.20312,27.19336,9.55811,43.93945,23.48096,48.42871,40.26318,4.52246,16.89209-2.82031,38.40479-21.2334,62.21387-18.87988,24.41162-49.57129,51.3833-88.8125,78.05615h-3.46484l-.00586,2.41113c-3.98828,2.88281-9.74707,7.39844-17.53613,13.53711l-.15918.125c-21.38086,16.82031-53.69141,42.2373-69.2627,47.9375-4.88184,1.77441-8.33301,7.23633-7.8457,12.42969.59961,6.17578,5.49512,10.82129,11.38867,10.82129,1.28223,0,2.53906-.21875,3.7373-.65137,9.96289-3.58594,28.91406-15.86719,56.32227-36.50195,3.37793-2.54199,6.92383-3.88574,10.25391-3.88574,5.8916,0,10.68555,4.28613,12.82227,11.4668,6.22461,20.9209,13.95605,52.10449,15.43848,81.85938,1.69336,34.02344-5.0625,57.96484-20.08008,71.16016-8.93945,7.85254-21.06738,11.83496-36.0459,11.83496Z"/>
      <path class="cls-3" d="M402.80746,204.7032c-.65918,0-1.30078-.16016-1.90918-.47559-13.9707-7.2124-34.01855-17.19824-50.24805-23.84326-1.83496-.75342-3.25586-2.20801-3.99707-4.09326-.83887-2.13623-.7373-4.53516.28711-6.75439,11.62402-25.20508,33.10156-72.28516,39.87012-88.87256,1.62305-3.97363,3.90723-6.44287,5.95898-6.44287,1.88965,0,4.20605,1.92578,6.19727,5.15186,12.55469,20.2373,24.25488,45.38623,34.7832,74.75781.44727,1.24805.55762,3.87891.21484,5.11621-3.86426,13.77881-20.70801,35.2041-27.77051,43.7749-.87988,1.06787-2.11426,1.68115-3.38672,1.68115Z"/>
      <path class="cls-3" d="M215.85141,441.54695c11.48047-24.10449,27.98535-57.98535,43.9834-90.82715,11.98438-24.61035,24.85156-51.05469,37.74414-77.67969.46143-.95068,1.49463-1.6167,2.51221-1.6167.26025,0,.50439.04639.72559.1377,30.82275,12.81348,37.08838,21.53955,31.91553,44.45752-6.96289,30.87891-23.11328,64.86621-35.17334,83.37695-2.60889,3.99805-8.86279,8.41602-13.38135,9.45117-16.47559,3.7793-39.44385,14.77344-68.32617,32.7002Z"/>
      <path class="cls-3" d="M173.65854,180.60164c-1.81104-2.49756-4.91992-3.87305-8.78174-3.87305-47.00537,0-86.80811,5.25732-115.10547,15.20312-27.19336,9.55811-43.93994,23.48096-48.42871,40.26416-5.33496,19.93066,5.24561,44.89893,31.44678,74.20996,22.87939,25.59521,52.40137,48.16162,67.9624,59.33545,1.95703,1.40527,4.05225,2.14746,6.05957,2.14746,3.88721,0,7.23779-2.74414,8.96094-7.33789,7.04199-18.80664,13.75977-37.18652,20.53906-56.19482,2.01953-5.63965-.40869-12.7876-5.29688-15.60547-10.72949-6.16895-21.97461-11.45361-33.42236-15.70703-14.14258-5.25195-28.81152-9.03906-43.604-11.25684-5.37256-.81104-9.80225-5.68945-10.08496-11.09668-.18457-3.40625,1.01025-6.73291,3.27881-9.12793,2.1333-2.25244,5.09424-3.54395,8.12354-3.54395.53857,0,1.08301.04004,1.62158.12012,16.43408,2.44727,32.69727,6.63232,48.33838,12.43896,10.88232,4.0415,21.65674,8.9585,32.02197,14.61426,1.63574.89111,3.32959,1.34326,5.03467,1.34326h.00049c4.49707,0,8.3501-3.08008,10.05469-8.03711,7.41992-21.58984,14.89355-43.91455,22.21387-66.35693,1.46826-4.49121,1.12842-8.69727-.93262-11.53906ZM61.51016,290.1656c2.5722-1.79645,6.01538-1.17041,8.17938,1.18402,4.49115,4.89941,9.58112,9.09119,15.12024,12.45282,4.55914,2.7627,9.41779,4.9538,14.45337,6.51898,3.21179,1.00708,5.40295,4.43671,4.77698,7.97516-.58521,3.41602-3.32074,5.67529-6.31488,5.67529-.58521,0-1.18402-.08167-1.76923-.25861-6.08356-1.87811-11.94928-4.51837-17.44751-7.83911-6.6687-4.04211-12.77942-9.09119-18.15521-14.9978-2.78998-3.07581-2.3952-8.23376,1.15686-10.71075ZM130.06857,222.73317c-.88568,2.40479-2.88477,3.93683-5.11218,4.22211-1.12042.14349-2.29413-.02173-3.40479-.55176-5.21869-2.5011-10.68732-3.95483-16.26245-4.31104-3.31934-.20599-6.67126-.02362-9.95959.54846-3.92279.65332-7.58722-2.56824-7.58392-7.04163.00665-3.3761,2.46454-6.14697,5.56732-6.66779,4.13879-.68103,8.33636-.90308,12.49994-.64056,7.02875.45813,13.92664,2.25018,20.5127,5.35815,3.25592,1.53137,5.03729,5.58411,3.74298,9.08405Z"/>
    </g>
  </g>
</svg>